# xmcd
#
# Track frame offsets:
#	150
#	7712
#	21580
#	40050
#	58228
#	78811
#	91427
#	105476
#	125691
#	148387
#	155190
#	173647
#	192062
#	213689
#	234066
#	255796
#	270575
#	292530
#
# Disc length: 4096 seconds
# Revision: 0
# Processed by: cddbd v1.5.2PL0 Copyright (c) Steve Scherf et al.
# Submitted via: dBpowerAMP V12.0
#
DISCID=ea0ffe12
DTITLE=Various Artist - Best Night of My Life
DYEAR=2010
DGENRE=R&B
TTITLE0=Jamie Foxx - This Will Be (Intro)
TTITLE1=Jamie Foxx feat. Wiz Khalifa - Best Night of My Life
TTITLE2=Jamie Foxx feat. Rick Ross - Living Better Now
TTITLE3=Jamie Foxx feat. Justin Timberlake and T.I. - Winner
TTITLE4=Jamie Foxx feat. Rico Love - Freak
TTITLE5=Jamie Foxx - Hit It Like This
TTITLE6=Jamie Foxx feat. Ludacris and Soulja Boy - Yep Dat's Me
TTITLE7=Jamie Foxx feat. Drake - Fall for Your Type
TTITLE8=Jamie Foxx - Gorgeous
TTITLE9=Jamie Foxx - Let Me Get You on Your Toes (Interlude)
TTITLE10=Jamie Foxx - 15 Minutes
TTITLE11=Jamie Foxx - Sleeping Pill
TTITLE12=Jamie Foxx - Rejoice
TTITLE13=Jamie Foxx - All Said and Done
TTITLE14=Jamie Foxx - Split Personality
TTITLE15=Jamie Foxx - Quit Your Job
TTITLE16=Jamie Foxx feat. Gucci Mane - Speak French
TTITLE17=Jamie Foxx - Sex on the Beach
EXTD=
EXTT0=
EXTT1=
EXTT2=
EXTT3=
EXTT4=
EXTT5=
EXTT6=
EXTT7=
EXTT8=
EXTT9=
EXTT10=
EXTT11=
EXTT12=
EXTT13=
EXTT14=
EXTT15=
EXTT16=
EXTT17=
PLAYORDER=
